<?xml version="1.0" encoding="utf-8"?>
<!-- Generator: Adobe Illustrator 23.0.1, SVG Export Plug-In . SVG Version: 6.00 Build 0)  -->
<svg version="1.1" id="Calque_1" xmlns="http://www.w3.org/2000/svg" xmlns:xlink="http://www.w3.org/1999/xlink" x="0px" y="0px"
	 viewBox="0 0 38 38" style="enable-background:new 0 0 38 38;" xml:space="preserve">
<style type="text/css">
	.st0{fill:#FFFFFF;}
</style>
<g>
	<path class="st0" d="M19,29c1.4,0,2.5-1.1,2.5-2.5h-5C16.5,27.9,17.6,29,19,29z M27.4,23.2c-0.8-0.8-2.2-2-2.2-6c0-3-2.1-5.5-5-6.1
		v-0.8C20.3,9.6,19.7,9,19,9s-1.2,0.6-1.2,1.2v0.8c-2.9,0.6-5,3.1-5,6.1c0,4-1.4,5.2-2.2,6c-0.2,0.2-0.3,0.5-0.3,0.8
		c0,0.7,0.6,1.3,1.3,1.3c0,0,0,0,0,0h15c0.7,0,1.3-0.6,1.3-1.2c0,0,0,0,0,0C27.8,23.7,27.6,23.4,27.4,23.2z"/>
</g>
</svg>
