<?xml version="1.0" encoding="utf-8"?>
<!-- Generator: Adobe Illustrator 23.0.1, SVG Export Plug-In . SVG Version: 6.00 Build 0)  -->
<svg version="1.1" id="Calque_1" xmlns="http://www.w3.org/2000/svg" xmlns:xlink="http://www.w3.org/1999/xlink" x="0px" y="0px"
	 viewBox="0 0 38 38" style="enable-background:new 0 0 38 38;" xml:space="preserve">
<style type="text/css">
	.st0{fill:#FFFFFF;}
</style>
<g>
	<path class="st0" d="M29,20.3h-9.3l6.2,6.2c0.2,0.2,0.6,0.3,0.9,0c1.5-1.5,2.6-3.4,2.9-5.5C29.6,20.6,29.4,20.3,29,20.3L29,20.3
		L29,20.3z M28.3,17.7C28,13,24.3,9.3,19.6,9c-0.3,0-0.6,0.3-0.7,0.6l0,0v8.7h8.7C28,18.4,28.3,18.1,28.3,17.7
		C28.3,17.8,28.3,17.8,28.3,17.7z M17.1,20.3V11c0-0.3-0.3-0.6-0.6-0.6h-0.1c-4.7,0.7-8.2,4.8-8,9.6c0.2,5.1,4.4,9.1,9.5,9
		c1.9,0,3.7-0.6,5.3-1.7c0.3-0.2,0.3-0.6,0.1-0.9c0,0,0,0-0.1-0.1L17.1,20.3z"/>
</g>
</svg>
