<?xml version="1.0" encoding="utf-8"?>
<!-- Generator: Adobe Illustrator 23.0.1, SVG Export Plug-In . SVG Version: 6.00 Build 0)  -->
<svg version="1.1" id="Calque_1" xmlns="http://www.w3.org/2000/svg" xmlns:xlink="http://www.w3.org/1999/xlink" x="0px" y="0px"
	 viewBox="0 0 38 38" style="enable-background:new 0 0 38 38;" xml:space="preserve">
<path d="M33.8,18.2C31,12.7,25.4,9,19,9S7,12.7,4.2,18.2c-0.2,0.5-0.2,1,0,1.5C7,25.3,12.6,29,19,29s12-3.7,14.8-9.2
	C34.1,19.3,34.1,18.7,33.8,18.2z M19,26.5c-4.1,0-7.5-3.4-7.5-7.5s3.4-7.5,7.5-7.5s7.5,3.4,7.5,7.5C26.5,23.1,23.1,26.5,19,26.5
	C19,26.5,19,26.5,19,26.5z M19,14c-0.4,0-0.9,0.1-1.3,0.2c0.8,1.1,0.6,2.7-0.5,3.5c-0.9,0.6-2.1,0.6-3,0c-0.7,2.7,0.8,5.4,3.5,6.1
	c2.7,0.7,5.4-0.8,6.1-3.5c0.7-2.7-0.8-5.4-3.5-6.1C19.9,14.1,19.4,14,19,14z"/>
</svg>
