<?xml version="1.0" encoding="utf-8"?>
<!-- Generator: Adobe Illustrator 23.0.1, SVG Export Plug-In . SVG Version: 6.00 Build 0)  -->
<svg version="1.1" id="Calque_1" xmlns="http://www.w3.org/2000/svg" xmlns:xlink="http://www.w3.org/1999/xlink" x="0px" y="0px"
	 viewBox="0 0 38 38" style="enable-background:new 0 0 38 38;" xml:space="preserve">
<style type="text/css">
	.st0{fill:#FFFFFF;}
</style>
<g>
	<path class="st0" d="M18.7,14.2L10.4,21v7.3c0,0.4,0.3,0.7,0.7,0.7l5,0c0.4,0,0.7-0.3,0.7-0.7V24c0-0.4,0.3-0.7,0.7-0.7h2.9
		c0.4,0,0.7,0.3,0.7,0.7v4.3c0,0.4,0.3,0.7,0.7,0.7c0,0,0,0,0,0l5,0c0.4,0,0.7-0.3,0.7-0.7V21l-8.2-6.8C19.1,14,18.9,14,18.7,14.2
		L18.7,14.2z M31.7,18.8l-3.7-3.1V9.5c0-0.3-0.2-0.5-0.5-0.5h-2.5c-0.3,0-0.5,0.2-0.5,0.5v3.2l-4-3.3c-0.8-0.7-1.9-0.7-2.7,0
		L6.3,18.8c-0.2,0.2-0.3,0.5-0.1,0.8l1.1,1.4c0.2,0.2,0.5,0.3,0.8,0.1c0,0,0,0,0,0l10.5-8.7c0.2-0.2,0.5-0.2,0.7,0L29.8,21
		c0.2,0.2,0.6,0.2,0.8-0.1l1.1-1.4C31.9,19.3,31.9,19,31.7,18.8C31.7,18.8,31.7,18.8,31.7,18.8L31.7,18.8z"/>
</g>
</svg>
