<?xml version="1.0" encoding="utf-8"?>
<!-- Generator: Adobe Illustrator 23.0.1, SVG Export Plug-In . SVG Version: 6.00 Build 0)  -->
<svg version="1.1" id="Calque_1" xmlns="http://www.w3.org/2000/svg" xmlns:xlink="http://www.w3.org/1999/xlink" x="0px" y="0px"
	 viewBox="0 0 38 38" style="enable-background:new 0 0 38 38;" xml:space="preserve">
<path d="M28.4,14.5l-1.8,1.8c-0.2,0.2-0.5,0.2-0.7,0L21.6,12c-0.2-0.2-0.2-0.5,0-0.7l1.8-1.8c0.7-0.7,1.9-0.7,2.7,0l2.3,2.3
	C29.2,12.6,29.2,13.8,28.4,14.5z M20.1,12.9L9.8,23.2L9,27.9c-0.1,0.6,0.4,1.2,1.1,1.1l4.7-0.8l10.3-10.3c0.2-0.2,0.2-0.5,0-0.7
	l-4.3-4.3C20.6,12.7,20.3,12.7,20.1,12.9L20.1,12.9z M13.8,22.3c-0.2-0.2-0.2-0.6,0-0.8l6-6c0.2-0.2,0.6-0.2,0.8,0
	c0.2,0.2,0.2,0.6,0,0.8l-6,6C14.4,22.5,14.1,22.5,13.8,22.3L13.8,22.3z M12.4,25.6h1.9V27l-2.5,0.4l-1.2-1.2l0.4-2.5h1.4V25.6z"/>
</svg>
