<?xml version="1.0" encoding="utf-8"?>
<!-- Generator: Adobe Illustrator 23.0.1, SVG Export Plug-In . SVG Version: 6.00 Build 0)  -->
<svg version="1.1" id="Calque_1" xmlns="http://www.w3.org/2000/svg" xmlns:xlink="http://www.w3.org/1999/xlink" x="0px" y="0px"
	 viewBox="0 0 38 38" style="enable-background:new 0 0 38 38;" xml:space="preserve">
<path d="M27.1,10.3h-4.7l-0.4-0.7C21.9,9.2,21.6,9,21.2,9h-4.5c-0.4,0-0.7,0.2-0.8,0.5l-0.4,0.7h-4.7c-0.3,0-0.6,0.3-0.6,0.6v1.2
	c0,0.3,0.3,0.6,0.6,0.6h16.2c0.3,0,0.6-0.3,0.6-0.6v-1.2C27.7,10.5,27.5,10.3,27.1,10.3z M12.3,27.2c0.1,1,0.9,1.8,1.9,1.8h9.6
	c1,0,1.8-0.8,1.9-1.8L26.5,14h-15L12.3,27.2z"/>
</svg>
