<?xml version="1.0" encoding="utf-8"?>
<!-- Generator: Adobe Illustrator 23.0.1, SVG Export Plug-In . SVG Version: 6.00 Build 0)  -->
<svg version="1.1" id="Calque_1" xmlns="http://www.w3.org/2000/svg" xmlns:xlink="http://www.w3.org/1999/xlink" x="0px" y="0px"
	 viewBox="0 0 38 38" style="enable-background:new 0 0 38 38;" xml:space="preserve">
<style type="text/css">
	.st0{fill:#FFFFFF;}
</style>
<path class="st0" d="M19.1,19c2.8,0,5-2.2,5-5s-2.2-5-5-5s-5,2.2-5,5S16.3,19,19.1,19z M22.8,20.3l-1.9,7.5l-1.2-5.3l1.2-2.2h-3.8
	l1.2,2.2l-1.2,5.3l-1.9-7.5c-2.8,0.1-5,2.4-5,5.2v1.6c0,1,0.8,1.9,1.9,1.9l0,0h13.7c1,0,1.9-0.8,1.9-1.9v-1.6
	C27.8,22.7,25.6,20.4,22.8,20.3z"/>
</svg>
