<?xml version="1.0" encoding="utf-8"?>
<!-- Generator: Adobe Illustrator 23.0.1, SVG Export Plug-In . SVG Version: 6.00 Build 0)  -->
<svg version="1.1" id="Calque_1" xmlns="http://www.w3.org/2000/svg" xmlns:xlink="http://www.w3.org/1999/xlink" x="0px" y="0px"
	 viewBox="0 0 38 38" style="enable-background:new 0 0 38 38;" xml:space="preserve">
<style type="text/css">
	.st0{fill:#FFFFFF;}
</style>
<g>
	<path class="st0" d="M9,17.6c1.6,0,2.9-1.3,2.9-2.9s-1.3-2.9-2.9-2.9s-2.9,1.3-2.9,2.9S7.4,17.6,9,17.6z M29,17.6
		c1.6,0,2.9-1.3,2.9-2.9s-1.3-2.9-2.9-2.9s-2.9,1.3-2.9,2.9S27.4,17.6,29,17.6z M30.4,19h-2.9c-0.8,0-1.5,0.3-2,0.8
		c1.8,1,3.1,2.8,3.4,4.9h2.9c0.8,0,1.4-0.6,1.4-1.4c0,0,0,0,0,0v-1.4C33.3,20.3,32,19,30.4,19z M19,19c2.8,0,5-2.2,5-5s-2.2-5-5-5
		s-5,2.2-5,5C14,16.8,16.2,19,19,19C19,19,19,19,19,19z M22.4,20.4h-0.4c-1.9,1-4.2,1-6.1,0h-0.4c-2.8,0-5.1,2.3-5.1,5.1v1.3
		c0,1.2,1,2.1,2.1,2.1l0,0h12.9c1.2,0,2.1-1,2.1-2.1l0,0v-1.3C27.6,22.7,25.3,20.4,22.4,20.4z M12.4,19.8c-0.5-0.5-1.3-0.8-2-0.8
		H7.6c-1.6,0-2.9,1.3-2.9,2.9v1.4c0,0.8,0.6,1.4,1.4,1.4c0,0,0,0,0,0h2.9C9.4,22.6,10.6,20.8,12.4,19.8z"/>
</g>
</svg>
